<mxfile host="app.diagrams.net" modified="2023-11-29T08:28:10.377Z" agent="Mozilla/5.0 (Windows NT 10.0; Win64; x64) AppleWebKit/537.36 (KHTML, like Gecko) Chrome/119.0.0.0 Safari/537.36 Edg/119.0.0.0" etag="lAtzSI7wde_gCmfIalHy" version="22.1.4" type="device">
  <diagram id="zssgmvdwZO7xPkAqMUr9" name="Page-1">
    <mxGraphModel dx="1166" dy="1276" grid="0" gridSize="10" guides="1" tooltips="1" connect="1" arrows="1" fold="1" page="1" pageScale="1" pageWidth="850" pageHeight="1100" math="0" shadow="0">
      <root>
        <mxCell id="0" />
        <mxCell id="1" parent="0" />
        <mxCell id="xsu2VeeCbDcXNLft4ZVN-2" value="FMU1" style="rounded=1;whiteSpace=wrap;html=1;strokeColor=#999999;fontStyle=0" parent="1" vertex="1">
          <mxGeometry x="-771" y="-996" width="100" height="53" as="geometry" />
        </mxCell>
        <mxCell id="xsu2VeeCbDcXNLft4ZVN-3" value="FMU2" style="rounded=1;whiteSpace=wrap;html=1;strokeColor=#999999;" parent="1" vertex="1">
          <mxGeometry x="-641" y="-996" width="100" height="53" as="geometry" />
        </mxCell>
        <mxCell id="xsu2VeeCbDcXNLft4ZVN-21" style="edgeStyle=orthogonalEdgeStyle;rounded=0;orthogonalLoop=1;jettySize=auto;html=1;entryX=0.479;entryY=1.123;entryDx=0;entryDy=0;entryPerimeter=0;strokeColor=#4D4D4D;" parent="1" source="xsu2VeeCbDcXNLft4ZVN-1" edge="1" target="to6NKbX2GAIEANhzijNn-4">
          <mxGeometry relative="1" as="geometry">
            <mxPoint x="-745" y="-926" as="targetPoint" />
            <Array as="points">
              <mxPoint x="-720" y="-910" />
              <mxPoint x="-745" y="-910" />
            </Array>
          </mxGeometry>
        </mxCell>
        <mxCell id="xsu2VeeCbDcXNLft4ZVN-4" value="Tx_Clock&amp;nbsp;&amp;nbsp;&lt;br style=&quot;font-size: 5px;&quot;&gt;(time-based)" style="text;html=1;strokeColor=none;fillColor=none;align=center;verticalAlign=middle;whiteSpace=wrap;rounded=0;fontSize=5;" parent="1" vertex="1">
          <mxGeometry x="-761.25" y="-959" width="32.5" height="10" as="geometry" />
        </mxCell>
        <mxCell id="xsu2VeeCbDcXNLft4ZVN-5" value="Rx_Clock&lt;br style=&quot;font-size: 5px;&quot;&gt;(triggered)" style="text;html=1;strokeColor=none;fillColor=none;align=center;verticalAlign=middle;whiteSpace=wrap;rounded=0;fontSize=5;" parent="1" vertex="1">
          <mxGeometry x="-580" y="-959" width="30" height="10" as="geometry" />
        </mxCell>
        <mxCell id="xsu2VeeCbDcXNLft4ZVN-22" value="" style="endArrow=classic;html=1;rounded=0;strokeColor=#4D4D4D;" parent="1" edge="1">
          <mxGeometry width="50" height="50" relative="1" as="geometry">
            <mxPoint x="-720" y="-910" as="sourcePoint" />
            <mxPoint x="-565" y="-938" as="targetPoint" />
            <Array as="points">
              <mxPoint x="-565" y="-910" />
            </Array>
          </mxGeometry>
        </mxCell>
        <mxCell id="qZZ6O03Qcc_5pa3Q6Xoe-1" value="Tx_Data&amp;nbsp;&amp;nbsp;" style="text;html=1;strokeColor=none;fillColor=none;align=center;verticalAlign=middle;whiteSpace=wrap;rounded=0;fontSize=5;" parent="1" vertex="1">
          <mxGeometry x="-712.5" y="-956" width="22.5" height="10" as="geometry" />
        </mxCell>
        <mxCell id="qZZ6O03Qcc_5pa3Q6Xoe-2" value="Rx_Data&amp;nbsp;&amp;nbsp;" style="text;html=1;strokeColor=none;fillColor=none;align=center;verticalAlign=middle;whiteSpace=wrap;rounded=0;fontSize=5;" parent="1" vertex="1">
          <mxGeometry x="-630" y="-956" width="30" height="10" as="geometry" />
        </mxCell>
        <mxCell id="qZZ6O03Qcc_5pa3Q6Xoe-3" value="" style="endArrow=classic;html=1;rounded=0;exitX=0.5;exitY=1;exitDx=0;exitDy=0;strokeColor=#4D4D4D;" parent="1" source="to6NKbX2GAIEANhzijNn-1" edge="1">
          <mxGeometry width="50" height="50" relative="1" as="geometry">
            <mxPoint x="-700" y="-927" as="sourcePoint" />
            <mxPoint x="-615" y="-938" as="targetPoint" />
            <Array as="points">
              <mxPoint x="-702" y="-918" />
              <mxPoint x="-657" y="-918" />
              <mxPoint x="-615" y="-918" />
            </Array>
          </mxGeometry>
        </mxCell>
        <mxCell id="to6NKbX2GAIEANhzijNn-1" value="" style="rounded=0;whiteSpace=wrap;html=1;fillColor=#4D4D4D;strokeColor=#4D4D4D;" vertex="1" parent="1">
          <mxGeometry x="-705" y="-945" width="6" height="6" as="geometry" />
        </mxCell>
        <mxCell id="to6NKbX2GAIEANhzijNn-4" value="" style="rounded=0;whiteSpace=wrap;html=1;fillColor=#4D4D4D;strokeColor=#4D4D4D;" vertex="1" parent="1">
          <mxGeometry x="-748" y="-945" width="6" height="6" as="geometry" />
        </mxCell>
        <mxCell id="to6NKbX2GAIEANhzijNn-6" value="" style="rounded=0;whiteSpace=wrap;html=1;fillColor=#4D4D4D;strokeColor=#4D4D4D;" vertex="1" parent="1">
          <mxGeometry x="-618" y="-945" width="6" height="6" as="geometry" />
        </mxCell>
        <mxCell id="to6NKbX2GAIEANhzijNn-7" value="" style="rounded=0;whiteSpace=wrap;html=1;fillColor=#4D4D4D;strokeColor=#4D4D4D;" vertex="1" parent="1">
          <mxGeometry x="-568" y="-945" width="6" height="6" as="geometry" />
        </mxCell>
        <mxCell id="xsu2VeeCbDcXNLft4ZVN-1" value="Importer" style="rounded=0;whiteSpace=wrap;html=1;fillColor=#FFFCF0;strokeColor=#999999;" parent="1" vertex="1">
          <mxGeometry x="-771" y="-900" width="230" height="46" as="geometry" />
        </mxCell>
        <mxCell id="xsu2VeeCbDcXNLft4ZVN-17" value="Tx Clock&amp;nbsp; &amp;nbsp;&lt;br style=&quot;font-size: 5px;&quot;&gt;FMU1 - FMU2&amp;nbsp;" style="text;html=1;strokeColor=none;fillColor=none;align=center;verticalAlign=middle;whiteSpace=wrap;rounded=0;fontSize=5;rotation=0;" parent="1" vertex="1">
          <mxGeometry x="-739.5" y="-875" width="39" height="10" as="geometry" />
        </mxCell>
        <mxCell id="xsu2VeeCbDcXNLft4ZVN-16" value="" style="html=1;verticalLabelPosition=bottom;align=center;labelBackgroundColor=#ffffff;verticalAlign=top;strokeWidth=2;strokeColor=#0080F0;shadow=0;dashed=0;shape=mxgraph.ios7.icons.clock;fillColor=#FFFCF0;" parent="1" vertex="1">
          <mxGeometry x="-727.5" y="-892" width="15" height="15" as="geometry" />
        </mxCell>
        <mxCell id="to6NKbX2GAIEANhzijNn-8" value="" style="rounded=0;whiteSpace=wrap;html=1;fillColor=#4D4D4D;strokeColor=#4D4D4D;" vertex="1" parent="1">
          <mxGeometry x="-723" y="-903" width="6" height="6" as="geometry" />
        </mxCell>
      </root>
    </mxGraphModel>
  </diagram>
</mxfile>
